<?xml version="1.0" encoding="utf-8"?>
<!-- Generator: Adobe Illustrator 17.0.0, SVG Export Plug-In . SVG Version: 6.00 Build 0)  -->
<!DOCTYPE svg PUBLIC "-//W3C//DTD SVG 1.1//EN" "http://www.w3.org/Graphics/SVG/1.1/DTD/svg11.dtd">
<svg version="1.1" id="Layer_1" xmlns="http://www.w3.org/2000/svg" xmlns:xlink="http://www.w3.org/1999/xlink" x="0px" y="0px"
	 width="256px" height="256px" viewBox="0 0 256 256" enable-background="new 0 0 256 256" xml:space="preserve">
<rect display="none" fill="#231F20" width="96" height="48"/>
<g>
	<g>
		<g>
			<path fill="#FFFFFF" d="M45.932,29.563l-6.945-0.261c-0.558-0.021-0.651,0.238-0.206,0.576l2.47,1.873l-11.955,6.902
				c-0.76-0.542-1.794-0.629-2.654-0.132c-1.176,0.679-1.578,2.182-0.9,3.358c0.679,1.176,2.182,1.578,3.358,0.9
				c0.861-0.497,1.302-1.436,1.213-2.365l12.019-6.939l0.481,3.018c0.088,0.552,0.366,0.595,0.617,0.096l3.061-6.078
				C46.741,30.009,46.49,29.584,45.932,29.563z"/>
			<path fill="#FFFFFF" d="M28.016,37.468c-0.597-3.239,0.852-6.654,3.867-8.395c2.203-1.272,4.761-1.372,6.959-0.504
				c0.06-0.003,0.109-0.02,0.172-0.018l3.709,0.14c-3.133-2.924-7.936-3.605-11.84-1.351c-3.821,2.206-5.632,6.564-4.802,10.663
				c0.064-0.043,0.118-0.095,0.186-0.134C26.806,37.559,27.414,37.439,28.016,37.468z"/>
			<path fill="#FFFFFF" d="M43.766,37.376c-0.399,2.252-1.75,4.322-3.883,5.553c-3.006,1.736-6.674,1.291-9.18-0.828
				c-0.276,0.541-0.684,1.012-1.228,1.326c-0.063,0.037-0.131,0.056-0.196,0.088c3.134,2.745,7.795,3.346,11.604,1.147
				c3.873-2.236,5.688-6.683,4.773-10.83l-1.557,3.093C44.002,37.116,43.889,37.257,43.766,37.376z"/>
		</g>
	</g>
	<g>
		<g>
			<path fill="#FFFFFF" d="M94.974,35.03h-2.042c-0.42-3.776-3.196-6.843-6.821-7.719l-0.209,2.019
				c2.619,0.742,4.618,2.957,5.014,5.7c0.047,0.327,0.08,0.658,0.08,0.998c0,0.34-0.033,0.671-0.08,0.998
				c-0.441,3.052-2.86,5.468-5.918,5.907c-0.327,0.047-0.658,0.079-0.998,0.079s-0.671-0.033-0.998-0.079
				c-3.058-0.439-5.478-2.854-5.918-5.907c-0.047-0.327-0.08-0.658-0.08-0.998c0-0.34,0.033-0.671,0.08-0.998
				c0.396-2.742,2.394-4.956,5.012-5.699l-0.21-2.019c-3.624,0.877-6.398,3.943-6.818,7.718h-2.042
				c-0.551,0-0.998,0.446-0.998,0.998s0.447,0.998,0.998,0.998h2.042c0.462,4.155,3.774,7.461,7.935,7.923v2.054
				C83.002,47.554,83.449,48,84,48s0.998-0.446,0.998-0.998v-2.054c4.161-0.461,7.472-3.767,7.935-7.923h2.042
				c0.551,0,0.998-0.446,0.998-0.998S95.526,35.03,94.974,35.03z"/>
			<g>
				<path fill="#FFFFFF" d="M84.603,34.288l0.876-8.435c0-0.462-0.14-0.986-0.42-1.333C84.779,24.173,84.426,24,84,24
					c-0.426,0-0.78,0.173-1.06,0.52c-0.28,0.346-0.42,0.871-0.42,1.333l0.876,8.435H84.603z"/>
				<path fill="#FFFFFF" d="M85.16,35.059c-0.323-0.322-0.709-0.483-1.159-0.483c-0.451,0-0.837,0.161-1.16,0.483
					c-0.323,0.322-0.484,0.708-0.484,1.158c0,0.45,0.161,0.836,0.484,1.158c0.323,0.322,0.709,0.483,1.16,0.483
					c0.45,0,0.837-0.161,1.159-0.483c0.323-0.322,0.484-0.708,0.484-1.158C85.644,35.768,85.482,35.382,85.16,35.059z"/>
			</g>
		</g>
	</g>
	<g>
		<g>
			<circle fill="#FFFFFF" cx="60" cy="36" r="2.003"/>
			<g>
				<path fill="#FFFFFF" d="M69.28,32.295c-0.117,0.208-0.257,0.399-0.444,0.545c-0.373,0.292-0.85,0.411-1.36,0.367
					c1.2,3.207,0.237,6.955-2.615,9.139c-2.662,2.039-6.209,2.13-8.933,0.513c-0.273-0.162-0.535-0.345-0.788-0.542
					c0.15-0.061,0.297-0.113,0.44-0.15l0.275-0.072c1.063-0.277,1.091-0.817,0.061-1.201l-3.104-1.157
					c-1.03-0.384-1.806,0.199-1.725,1.295l0.235,3.187c0.081,1.096,0.618,1.227,1.193,0.29l0.085-0.138
					c0.186-0.303,0.458-0.61,0.769-0.898c0.192,0.169,0.389,0.33,0.591,0.483c3.501,2.659,8.479,2.788,12.13-0.008
					C69.724,41.166,70.903,36.357,69.28,32.295z"/>
				<path fill="#FFFFFF" d="M55.14,29.653c2.712-2.077,6.342-2.13,9.086-0.415c0.247,0.154,0.485,0.324,0.715,0.507
					c-0.231,0.119-0.46,0.221-0.678,0.285l-0.155,0.046c-1.054,0.312-1.067,0.864-0.03,1.228l3.015,1.057
					c1.037,0.364,1.802-0.234,1.7-1.328l-0.308-3.299c-0.102-1.094-0.631-1.208-1.175-0.254l-0.141,0.247
					c-0.144,0.253-0.345,0.512-0.578,0.761c-0.191-0.168-0.388-0.327-0.59-0.478c-3.499-2.63-8.453-2.746-12.09,0.039
					c-3.615,2.769-4.803,7.541-3.219,11.589c0.108-0.156,0.233-0.299,0.386-0.413c0.409-0.307,0.935-0.416,1.491-0.327
					C51.308,35.669,52.256,31.862,55.14,29.653z"/>
			</g>
		</g>
	</g>
	<g>
		<g>
			<g>
				<path fill="#FFFFFF" d="M4.577,43.423c-4.099-4.099-4.103-10.764-0.01-14.857s10.758-4.088,14.857,0.01
					s4.103,10.763,0.01,14.856S8.676,47.522,4.577,43.423z M18.132,29.868c-3.387-3.387-8.893-3.392-12.275-0.01
					s-3.377,8.888,0.01,12.275s8.893,3.391,12.274,0.01S21.519,33.255,18.132,29.868z"/>
			</g>
			<g>
				<path fill="#FFFFFF" d="M10.559,31.69l1.11,1.11c0,0,1.502-1.428,1.85-2.993c0,0,0.103-0.543-0.216-0.861
					c-0.318-0.319-0.861-0.216-0.861-0.216c-1.565,0.348-2.993,1.851-2.993,1.851L10.559,31.69z"/>
				<polygon fill="#FFFFFF" points="7.098,37.495 11.308,33.285 11.32,33.148 10.211,32.039 9.101,30.929 8.964,30.941 
					4.754,35.151 5.926,36.323 				"/>
				<path fill="#FFFFFF" d="M6.697,37.661l-2.11-2.109c-0.123-0.123-0.291-0.158-0.373-0.076c-0.082,0.082-0.048,0.25,0.075,0.374
					l2.11,2.11c0.123,0.123,0.291,0.157,0.373,0.075C6.854,37.953,6.82,37.785,6.697,37.661z"/>
				<path fill="#FFFFFF" d="M13.387,34.518l1.11,1.11c0,0,1.502-1.428,1.85-2.993c0,0,0.103-0.543-0.216-0.861
					c-0.318-0.319-0.861-0.216-0.861-0.216c-1.565,0.348-2.993,1.851-2.993,1.851L13.387,34.518z"/>
				<polygon fill="#FFFFFF" points="9.926,40.323 14.136,36.113 14.149,35.976 13.039,34.867 11.929,33.757 11.792,33.77 
					7.583,37.979 8.755,39.152 				"/>
				<path fill="#FFFFFF" d="M9.525,40.49l-2.11-2.109c-0.123-0.123-0.291-0.158-0.373-0.076c-0.082,0.082-0.048,0.25,0.075,0.374
					l2.11,2.11c0.123,0.123,0.291,0.157,0.373,0.075C9.683,40.781,9.649,40.613,9.525,40.49z"/>
				<path fill="#FFFFFF" d="M16.216,37.347l1.11,1.11c0,0,1.502-1.428,1.85-2.993c0,0,0.103-0.543-0.216-0.861
					c-0.318-0.319-0.861-0.216-0.861-0.216c-1.565,0.348-2.993,1.851-2.993,1.851L16.216,37.347z"/>
				<polygon fill="#FFFFFF" points="12.754,43.151 16.965,38.942 16.977,38.805 15.868,37.695 14.758,36.585 14.621,36.598 
					10.411,40.808 11.583,41.98 				"/>
				<path fill="#FFFFFF" d="M12.354,43.318l-2.11-2.109c-0.123-0.123-0.291-0.158-0.373-0.076c-0.082,0.082-0.048,0.25,0.075,0.374
					l2.11,2.11c0.123,0.123,0.291,0.157,0.373,0.075C12.511,43.61,12.477,43.442,12.354,43.318z"/>
			</g>
		</g>
		<rect x="0" y="24" display="none" fill="#FFFFFF" width="24" height="24"/>
	</g>
</g>
<g>
	<g>
		<g>
			<circle fill="#FFFFFF" cx="12" cy="12" r="2"/>
			<path fill="#FFFFFF" d="M23,11h-2.047C20.49,6.835,17.171,3.521,13,3.059V1c0-0.553-0.447-1-1-1s-1,0.447-1,1v2.059
				C6.829,3.521,3.51,6.835,3.047,11H1c-0.552,0-1,0.447-1,1s0.448,1,1,1h2.047C3.51,17.165,6.829,20.479,11,20.941V23
				c0,0.553,0.447,1,1,1s1-0.447,1-1v-2.059c4.171-0.462,7.49-3.776,7.953-7.941H23c0.553,0,1-0.447,1-1S23.553,11,23,11z
				 M18.932,13c-0.442,3.059-2.867,5.48-5.932,5.92C12.672,18.967,12.34,19,12,19s-0.672-0.033-1-0.08
				C7.935,18.48,5.509,16.059,5.068,13c-0.047-0.328-0.08-0.66-0.08-1s0.033-0.672,0.08-1C5.509,7.941,7.935,5.52,11,5.08
				C11.328,5.033,11.66,5,12,5s0.672,0.033,1,0.08c3.065,0.44,5.491,2.861,5.932,5.92c0.047,0.328,0.08,0.66,0.08,1
				S18.979,12.672,18.932,13z"/>
		</g>
	</g>
	<g>
		<g>
			<path fill="#FFFFFF" d="M71,11h-1.063c-0.126-1.263-0.472-2.461-1.027-3.543l0.011-0.006l-0.085-0.147
				c-0.048-0.09-0.102-0.177-0.153-0.265L68.4,6.549l-0.011,0.007c-0.766-1.173-1.771-2.175-2.947-2.939l0.01-0.017l-0.902-0.521
				l-0.01,0.018C63.458,2.546,62.261,2.202,61,2.076V1c0-0.553-0.447-1-1-1s-1,0.447-1,1v1.076
				c-1.261,0.126-2.458,0.469-3.539,1.021l-0.01-0.018L54.549,3.6l0.01,0.017c-1.176,0.764-2.181,1.765-2.947,2.939L51.6,6.549
				L51.316,7.04c-0.05,0.088-0.104,0.174-0.152,0.263l-0.085,0.148l0.011,0.006C50.535,8.539,50.189,9.737,50.063,11H49
				c-0.552,0-1,0.447-1,1s0.448,1,1,1h1.063c0.126,1.263,0.472,2.461,1.027,3.543l-0.011,0.006l0.085,0.147
				c0.048,0.09,0.102,0.176,0.153,0.264l0.283,0.491l0.012-0.007c0.766,1.173,1.771,2.175,2.947,2.939l-0.01,0.017l0.902,0.521
				l0.01-0.018c1.081,0.552,2.277,0.895,3.539,1.021V23c0,0.553,0.447,1,1,1s1-0.447,1-1v-1.077
				c1.261-0.126,2.458-0.469,3.538-1.021l0.01,0.018l0.902-0.521l-0.01-0.017c1.176-0.764,2.181-1.765,2.947-2.939l0.011,0.007
				l0.282-0.489c0.051-0.089,0.105-0.176,0.154-0.266l0.085-0.147l-0.011-0.006c0.555-1.081,0.901-2.279,1.027-3.543H71
				c0.553,0,1-0.447,1-1S71.553,11,71,11z M67.464,15.708l-0.167-0.097c-0.249-0.144-0.568-0.058-0.711,0.191
				c-0.144,0.249-0.058,0.568,0.191,0.711l0.17,0.098c-0.617,0.923-1.412,1.715-2.337,2.329l-0.095-0.165
				c-0.144-0.249-0.462-0.334-0.711-0.191c-0.249,0.144-0.334,0.463-0.191,0.711l0.092,0.16C62.872,19.87,61.96,20.138,61,20.253
				c-0.159,0.019-0.317,0.044-0.479,0.054v-0.182c0-0.287-0.233-0.521-0.521-0.521c-0.288,0-0.521,0.234-0.521,0.521v0.182
				c-0.162-0.01-0.32-0.035-0.479-0.054c-0.96-0.115-1.872-0.382-2.704-0.796l0.092-0.16c0.144-0.249,0.058-0.568-0.191-0.711
				c-0.249-0.144-0.568-0.058-0.711,0.191l-0.095,0.165c-0.925-0.614-1.721-1.407-2.337-2.329l0.17-0.098
				c0.249-0.144,0.334-0.462,0.191-0.712c-0.144-0.249-0.463-0.334-0.711-0.191l-0.167,0.097c-0.417-0.833-0.686-1.746-0.802-2.708
				c-0.019-0.159-0.044-0.317-0.054-0.479h0.196c0.287,0,0.521-0.233,0.521-0.521s-0.234-0.521-0.521-0.521h-0.196
				c0.01-0.162,0.035-0.32,0.054-0.479c0.116-0.961,0.385-1.875,0.802-2.708l0.167,0.097c0.249,0.144,0.568,0.058,0.711-0.191
				s0.058-0.568-0.191-0.711l-0.17-0.098c0.617-0.923,1.412-1.715,2.337-2.329l0.095,0.165c0.144,0.249,0.462,0.334,0.711,0.191
				s0.334-0.463,0.191-0.711l-0.092-0.16C57.128,4.13,58.04,3.862,59,3.747c0.159-0.019,0.317-0.044,0.479-0.054v0.182
				c0,0.287,0.233,0.521,0.521,0.521c0.288,0,0.521-0.234,0.521-0.521V3.693c0.162,0.01,0.32,0.035,0.479,0.054
				c0.96,0.115,1.872,0.382,2.704,0.796l-0.092,0.16c-0.144,0.249-0.059,0.568,0.191,0.711s0.568,0.058,0.711-0.191l0.095-0.165
				c0.925,0.614,1.721,1.407,2.337,2.329l-0.17,0.098c-0.249,0.144-0.334,0.462-0.191,0.711c0.144,0.249,0.463,0.334,0.711,0.191
				l0.167-0.097c0.417,0.833,0.686,1.747,0.802,2.708c0.019,0.159,0.044,0.317,0.054,0.479h-0.196c-0.287,0-0.521,0.233-0.521,0.521
				c0,0.288,0.234,0.521,0.521,0.521h0.196c-0.01,0.162-0.035,0.32-0.054,0.479C68.15,13.961,67.881,14.875,67.464,15.708z"/>
			<g>
				<path fill="#FFFFFF" d="M65.413,14.404l-3.577-2.065c-0.038,0.205-0.103,0.408-0.213,0.599c-0.109,0.188-0.256,0.343-0.417,0.48
					l3.582,2.068c0.299,0.173,0.681,0.07,0.854-0.229C65.815,14.959,65.712,14.576,65.413,14.404z"/>
				<path fill="#FFFFFF" d="M60.625,10.244V6.11c0-0.345-0.28-0.625-0.625-0.625c-0.345,0-0.625,0.28-0.625,0.625v4.136
					c0.201-0.072,0.41-0.123,0.629-0.123C60.217,10.123,60.425,10.173,60.625,10.244z"/>
				<path fill="#FFFFFF" d="M61.449,12.115c0.043-0.544-0.217-1.09-0.719-1.38c-0.033-0.019-0.071-0.027-0.105-0.044
					c-0.195-0.093-0.405-0.152-0.621-0.152c-0.222,0-0.434,0.06-0.629,0.154c-0.261,0.126-0.489,0.319-0.638,0.577
					c-0.402,0.697-0.164,1.592,0.533,1.994c0.221,0.129,0.473,0.196,0.727,0.196h0c0.3,0,0.582-0.102,0.822-0.267
					c0.177-0.122,0.334-0.274,0.444-0.465C61.375,12.535,61.433,12.325,61.449,12.115z"/>
			</g>
		</g>
	</g>
	<g>
		<g>
			<path fill="#FFFFFF" d="M85.045,17.654l1.521-14.551c0-0.8-0.244-1.568-0.729-2.168C85.35,0.334,84.739,0,84,0
				s-1.352,0.285-1.837,0.885c-0.486,0.6-0.729,1.426-0.729,2.226l1.521,14.543H85.045z"/>
			<path fill="#FFFFFF" d="M84,18.308c-0.782,0-1.452,0.28-2.012,0.838c-0.558,0.559-0.839,1.228-0.839,2.008
				c0,0.781,0.28,1.45,0.839,2.008C82.548,23.721,83.218,24,84,24c0.78,0,1.452-0.279,2.01-0.838c0.56-0.558,0.84-1.228,0.84-2.008
				c0-0.78-0.28-1.449-0.84-2.008C85.452,18.587,84.78,18.308,84,18.308z"/>
			<path fill="#FFFFFF" d="M75.987,12c0-3.292,2.003-6.123,4.855-7.35l-0.153-1.461c-0.001-0.217,0.021-0.425,0.046-0.632
				C76.814,3.914,73.987,7.629,73.987,12c0,4.251,2.675,7.882,6.429,9.326c-0.003-0.058-0.016-0.113-0.016-0.172
				c0-0.655,0.173-1.248,0.487-1.783C78.01,18.156,75.987,15.31,75.987,12z"/>
			<path fill="#FFFFFF" d="M87.271,2.559c0.022,0.18,0.044,0.359,0.044,0.544l-0.161,1.545c2.854,1.225,4.859,4.059,4.859,7.352
				c0,3.31-2.024,6.156-4.901,7.372c0.315,0.534,0.488,1.127,0.488,1.783c0,0.059-0.013,0.114-0.016,0.172
				c3.754-1.444,6.429-5.075,6.429-9.326C94.013,7.631,91.189,3.917,87.271,2.559z"/>
		</g>
	</g>
	<g>
		<g>
			<path fill="#FFFFFF" d="M43.828,7.792l-2.081,1.392c1.58,2.854,1.17,6.522-1.246,8.938c-2.924,2.924-7.685,2.919-10.613-0.009
				c-2.929-2.929-2.933-7.69-0.009-10.613c2.416-2.416,6.084-2.827,8.938-1.246l1.392-2.081c-3.831-2.228-8.826-1.718-12.101,1.557
				c-3.9,3.9-3.896,10.249,0.009,14.154s10.254,3.909,14.154,0.009C45.545,16.618,46.055,11.623,43.828,7.792z"/>
			<path fill="#FFFFFF" d="M40.179,5.34c0.334,0.223,0.651,0.479,0.959,0.751l-5.005,5.006c-0.762-0.425-1.738-0.323-2.385,0.324
				c-0.781,0.781-0.78,2.048,0.002,2.831c0.782,0.782,2.049,0.783,2.831,0.002c0.647-0.647,0.749-1.624,0.323-2.386l5.005-5.005
				c0.272,0.308,0.529,0.626,0.752,0.96l1.25-0.836l1.24-0.83l1.664-1.113c-0.224-0.334-0.46-0.663-0.715-0.981l-2.16-2.16
				c-0.318-0.256-0.647-0.492-0.981-0.716L41.845,2.85l-0.83,1.24L40.179,5.34z"/>
			<path fill="#FFFFFF" d="M36.933,14.606c-0.472,0.472-1.099,0.731-1.767,0.731c-0.669,0-1.298-0.26-1.771-0.733
				c-0.473-0.473-0.733-1.101-0.733-1.77c-0.001-0.668,0.259-1.296,0.731-1.769c0.68-0.679,1.734-0.9,2.63-0.568l1.322-1.322
				c-0.14-0.081-0.277-0.168-0.422-0.234c-1.581-0.714-3.502-0.437-4.797,0.858c-1.671,1.671-1.667,4.392,0.007,6.066
				c1.674,1.674,4.396,1.678,6.066,0.007c1.295-1.295,1.572-3.216,0.858-4.797c-0.066-0.146-0.153-0.283-0.234-0.423l-1.322,1.322
				C37.835,12.879,37.624,13.915,36.933,14.606z"/>
		</g>
	</g>
</g>
</svg>
